# xmcd
#
# Track frame offsets:
#	150
#	17819
#	31405
#	44770
#	69493
#	88328
#	108041
#	124460
#	143496
#	165783
#
# Disc length: 2466 seconds
#
# Revision: 1
# Processed by: cddbd v1.5.2PL0 Copyright (c) Steve Scherf et al.
# Submitted via: audiograbber 1.83.01
#
DISCID=8109a00a
DTITLE=Cookie And The Vagrants - Destiny Blues, CD 2 of 2
DYEAR=2009
DGENRE=Blues
TTITLE0=Mess Of The Blues
TTITLE1=Little Bit
TTITLE2=You Can Have My Husband
TTITLE3=I'd Rather Go Blind
TTITLE4=Let The Good Times Roll
TTITLE5=Walkin The Dog
TTITLE6=Sweet Home Chicago
TTITLE7=Guilty
TTITLE8=Mojo
TTITLE9=Conga Square
EXTD=
EXTT0=
EXTT1=
EXTT2=
EXTT3=
EXTT4=
EXTT5=
EXTT6=
EXTT7=
EXTT8=
EXTT9=
PLAYORDER=
